<?xml version="1.0" encoding="iso-8859-1"?>
<!-- Generator: Adobe Illustrator 19.0.0, SVG Export Plug-In . SVG Version: 6.00 Build 0)  -->
<svg version="1.1" id="Capa_1" xmlns="http://www.w3.org/2000/svg" xmlns:xlink="http://www.w3.org/1999/xlink" x="0px" y="0px"
	 viewBox="0 0 505.173 505.173" style="enable-background:new 0 0 505.173 505.173;" xml:space="preserve">
<g>
	<polygon style="fill:#78C5D6;" points="505.173,258.321 505.173,299.281 246.579,454.383 0,311.228 0,270.268 141.38,185.481 
		254.976,113.118 	"/>
	<g>
		<path style="fill:#508892;" d="M231.85,362.231c-1.201,0.001-2.381-0.316-3.42-0.92l-3.333-1.933
			c-3.249-1.898-4.35-6.068-2.462-9.323c1.888-3.255,6.054-4.369,9.315-2.491l3.333,1.933c2.672,1.55,3.971,4.701,3.167,7.683
			C237.646,360.164,234.939,362.235,231.85,362.231L231.85,362.231z"/>
		<path style="fill:#508892;" d="M215.19,352.558c-1.201,0.001-2.381-0.316-3.42-0.92l-3.333-1.933
			c-2.118-1.22-3.423-3.48-3.42-5.924c0.003-2.445,1.312-4.702,3.433-5.917c2.121-1.216,4.73-1.205,6.841,0.028l3.333,1.933
			c2.672,1.55,3.971,4.701,3.167,7.684C220.986,350.491,218.279,352.561,215.19,352.558L215.19,352.558z"/>
		<path style="fill:#508892;" d="M198.523,342.884c-1.201,0.001-2.382-0.316-3.42-0.92l-3.333-1.933
			c-3.262-1.892-4.372-6.071-2.48-9.333c1.893-3.262,6.071-4.372,9.333-2.48l3.333,1.933c2.673,1.55,3.971,4.701,3.167,7.683
			C204.319,340.817,201.613,342.888,198.523,342.884L198.523,342.884z"/>
		<path style="fill:#508892;" d="M181.863,333.211c-1.201,0.001-2.381-0.316-3.42-0.92l-3.333-1.933
			c-3.262-1.892-4.373-6.071-2.48-9.333s6.071-4.372,9.333-2.48l3.333,1.933c2.673,1.55,3.971,4.701,3.167,7.684
			C187.659,331.144,184.952,333.215,181.863,333.211L181.863,333.211z"/>
		<path style="fill:#508892;" d="M165.197,323.538c-1.201,0.001-2.381-0.316-3.42-0.92l-3.333-1.933
			c-3.262-1.893-4.372-6.071-2.48-9.333c1.893-3.262,6.071-4.372,9.333-2.48l3.333,1.933c2.672,1.55,3.971,4.701,3.167,7.683
			S168.286,323.541,165.197,323.538L165.197,323.538z"/>
		<path style="fill:#508892;" d="M148.537,313.864c-1.201,0.001-2.381-0.316-3.42-0.92l-3.333-1.933
			c-2.11-1.224-3.407-3.481-3.402-5.921c0.005-2.44,1.311-4.691,3.427-5.907c2.115-1.215,4.719-1.21,6.829,0.014l3.333,1.933
			c2.672,1.55,3.971,4.701,3.167,7.683S151.626,313.868,148.537,313.864L148.537,313.864z"/>
		<path style="fill:#508892;" d="M131.87,304.191c-1.201,0.001-2.382-0.316-3.42-0.92l-3.333-1.933
			c-3.262-1.892-4.373-6.071-2.48-9.333c1.892-3.262,6.071-4.373,9.333-2.48l3.333,1.933c2.673,1.55,3.971,4.701,3.167,7.684
			C137.666,302.124,134.959,304.195,131.87,304.191L131.87,304.191z"/>
		<path style="fill:#508892;" d="M115.203,294.518c-1.204,0-2.387-0.32-3.427-0.927l-3.327-1.933
			c-2.114-1.224-3.412-3.484-3.406-5.926c0.007-2.442,1.317-4.695,3.438-5.907s4.726-1.2,6.835,0.033l3.327,1.933
			c2.667,1.553,3.961,4.702,3.156,7.681C120.994,292.452,118.289,294.52,115.203,294.518L115.203,294.518z"/>
		<path style="fill:#508892;" d="M98.543,284.851c-1.204,0-2.387-0.32-3.427-0.927l-3.333-1.94
			c-2.108-1.227-3.401-3.485-3.393-5.923c0.008-2.439,1.317-4.688,3.433-5.9c2.116-1.212,4.718-1.203,6.826,0.023l3.333,1.94
			c2.667,1.553,3.961,4.702,3.156,7.681S101.629,284.854,98.543,284.851L98.543,284.851z"/>
		<path style="fill:#508892;" d="M67.917,283.558c-3.07,0.003-5.764-2.043-6.585-5.001c-0.821-2.958,0.433-6.1,3.065-7.679
			l4.053-2.433l-3.32-1.933c-2.111-1.223-3.408-3.479-3.403-5.919c0.005-2.439,1.313-4.69,3.429-5.904
			c2.116-1.213,4.719-1.205,6.827,0.022l13.327,7.74c2.089,1.211,3.382,3.437,3.4,5.852s-1.242,4.659-3.313,5.901l-13.973,8.38
			C70.365,283.221,69.152,283.558,67.917,283.558z"/>
		<path style="fill:#508892;" d="M356.557,228.391c-1.201,0.001-2.381-0.316-3.42-0.92l-3.333-1.933
			c-2.11-1.224-3.407-3.481-3.402-5.921s1.311-4.691,3.427-5.907c2.115-1.215,4.718-1.21,6.829,0.014l3.333,1.933
			c2.672,1.55,3.971,4.701,3.167,7.683S359.646,228.395,356.557,228.391z"/>
		<path style="fill:#508892;" d="M373.223,238.064c-1.201,0.001-2.381-0.316-3.42-0.92l-3.333-1.933
			c-3.262-1.892-4.372-6.071-2.48-9.333c1.892-3.262,6.071-4.373,9.333-2.48l3.333,1.933c2.672,1.55,3.971,4.701,3.167,7.684
			C379.02,235.997,376.313,238.068,373.223,238.064L373.223,238.064z"/>
		<path style="fill:#508892;" d="M393.217,249.671c-1.201,0.001-2.382-0.316-3.42-0.92l-6.667-3.867
			c-2.11-1.224-3.407-3.481-3.402-5.921c0.005-2.44,1.311-4.691,3.427-5.907c2.115-1.215,4.718-1.21,6.829,0.014l6.667,3.867
			c2.672,1.55,3.971,4.701,3.167,7.683C399.013,247.604,396.306,249.675,393.217,249.671L393.217,249.671z"/>
		<path style="fill:#508892;" d="M409.883,259.344c-1.201,0.001-2.382-0.316-3.42-0.92l-3.333-1.933
			c-2.11-1.224-3.407-3.481-3.402-5.921c0.005-2.44,1.311-4.691,3.427-5.907c2.115-1.215,4.718-1.21,6.829,0.014l3.333,1.933
			c2.672,1.55,3.971,4.701,3.167,7.683C415.679,257.277,412.972,259.348,409.883,259.344L409.883,259.344z"/>
		<path style="fill:#508892;" d="M436.543,274.818c-1.201,0.001-2.381-0.316-3.42-0.92l-13.333-7.733
			c-2.089-1.213-3.382-3.44-3.4-5.855c-0.018-2.416,1.242-4.661,3.313-5.905l13.98-8.387c3.233-1.94,7.426-0.893,9.367,2.34
			c1.94,3.233,0.893,7.426-2.34,9.367l-4.06,2.433l3.327,1.927c2.672,1.55,3.971,4.701,3.167,7.683
			C442.339,272.75,439.632,274.821,436.543,274.818L436.543,274.818z"/>
		<path style="fill:#508892;" d="M402.263,279.658c-3.069,0.001-5.762-2.046-6.581-5.003c-0.819-2.958,0.436-6.099,3.068-7.677
			l3.493-2.093c2.092-1.262,4.698-1.309,6.834-0.124c2.136,1.185,3.476,3.421,3.513,5.864c0.037,2.442-1.234,4.718-3.334,5.967
			l-3.493,2.093C404.707,279.322,403.497,279.659,402.263,279.658z"/>
		<path style="fill:#508892;" d="M384.79,290.144c-3.07,0.005-5.766-2.04-6.588-4.998s0.43-6.101,3.062-7.682l3.493-2.1
			c3.233-1.944,7.429-0.899,9.373,2.333s0.899,7.429-2.333,9.373l-3.493,2.1C387.242,289.808,386.028,290.144,384.79,290.144z"/>
		<path style="fill:#508892;" d="M367.323,300.624c-3.069,0.001-5.762-2.046-6.581-5.003c-0.819-2.958,0.436-6.099,3.068-7.677
			l3.493-2.093c2.091-1.253,4.692-1.295,6.822-0.11c2.131,1.185,3.467,3.416,3.507,5.853c0.039,2.437-1.225,4.711-3.316,5.964
			l-3.493,2.093C369.767,300.289,368.557,300.625,367.323,300.624z"/>
		<path style="fill:#508892;" d="M349.85,311.104c-3.072,0.004-5.769-2.044-6.589-5.005s0.439-6.105,3.076-7.682l3.5-2.093
			c2.094-1.253,4.697-1.294,6.828-0.107c2.132,1.187,3.469,3.42,3.507,5.86c0.038,2.44-1.228,4.714-3.321,5.967l-3.5,2.093
			C352.292,310.77,351.083,311.104,349.85,311.104z"/>
		<path style="fill:#508892;" d="M332.384,321.591c-3.07,0.005-5.766-2.04-6.588-4.998c-0.823-2.958,0.43-6.101,3.062-7.682
			l3.493-2.1c2.091-1.262,4.697-1.311,6.835-0.128c2.137,1.182,3.481,3.416,3.523,5.858c0.042,2.442-1.223,4.721-3.318,5.977
			l-3.493,2.1C334.836,321.255,333.621,321.591,332.384,321.591z"/>
		<path style="fill:#508892;" d="M314.917,332.071c-3.069,0.002-5.762-2.046-6.581-5.003c-0.82-2.958,0.436-6.099,3.068-7.677
			l3.493-2.093c3.233-1.937,7.423-0.886,9.36,2.347c1.937,3.233,0.886,7.423-2.347,9.36l-3.493,2.093
			C317.361,331.735,316.15,332.072,314.917,332.071z"/>
		<path style="fill:#508892;" d="M297.443,342.551c-3.069,0.001-5.762-2.046-6.581-5.003c-0.82-2.958,0.436-6.099,3.068-7.677
			l3.493-2.093c2.091-1.253,4.692-1.295,6.822-0.11c2.131,1.185,3.467,3.416,3.507,5.853c0.039,2.437-1.225,4.711-3.316,5.964
			l-3.493,2.093C299.887,342.215,298.677,342.552,297.443,342.551z"/>
		<path style="fill:#508892;" d="M279.977,353.038c-3.07,0.005-5.766-2.04-6.588-4.998c-0.823-2.958,0.43-6.101,3.062-7.682
			l3.493-2.1c3.233-1.944,7.429-0.899,9.373,2.333c1.944,3.233,0.899,7.429-2.333,9.373l-3.493,2.1
			C282.429,352.701,281.214,353.038,279.977,353.038z"/>
		<path style="fill:#508892;" d="M262.503,363.518c-3.07,0.005-5.765-2.04-6.588-4.998c-0.823-2.958,0.43-6.101,3.061-7.682
			l3.493-2.1c2.091-1.262,4.697-1.311,6.835-0.128c2.137,1.182,3.481,3.416,3.523,5.858c0.042,2.442-1.223,4.721-3.318,5.977
			l-3.493,2.1C264.955,363.181,263.741,363.518,262.503,363.518z"/>
		<path style="fill:#508892;" d="M134.303,243.731c-3.07,0.005-5.766-2.04-6.588-4.998c-0.823-2.958,0.43-6.101,3.062-7.682
			l3.493-2.1c3.233-1.944,7.429-0.899,9.373,2.333c1.944,3.233,0.899,7.429-2.333,9.373l-3.493,2.1
			C136.755,243.395,135.541,243.731,134.303,243.731z"/>
		<path style="fill:#508892;" d="M113.337,256.304c-3.069,0.001-5.762-2.046-6.581-5.003c-0.819-2.958,0.436-6.099,3.068-7.677
			l6.987-4.187c3.233-1.937,7.423-0.886,9.36,2.347s0.886,7.423-2.347,9.36l-6.987,4.187
			C115.781,255.969,114.57,256.305,113.337,256.304z"/>
		<path style="fill:#508892;" d="M95.87,266.791c-3.07,0.005-5.766-2.04-6.588-4.998c-0.823-2.958,0.43-6.101,3.062-7.682l3.493-2.1
			c3.233-1.944,7.429-0.899,9.373,2.333c1.944,3.233,0.899,7.429-2.333,9.373l-3.493,2.1
			C98.322,266.455,97.108,266.791,95.87,266.791z"/>
		<path style="fill:#508892;" d="M234.557,380.291c-3.07,0.003-5.764-2.043-6.585-5.001c-0.821-2.958,0.433-6.1,3.065-7.679
			l13.973-8.387c2.132-1.276,4.789-1.297,6.94-0.053l13.333,7.733c3.262,1.892,4.373,6.071,2.48,9.333
			c-1.892,3.262-6.071,4.373-9.333,2.48l-9.847-5.713l-10.52,6.313C237.005,379.955,235.792,380.291,234.557,380.291z"/>
		<polygon style="fill:#508892;" points="246.579,413.423 246.579,454.383 0,311.228 0,270.268 		"/>
	</g>
	<polygon style="fill:#4F6F7F;" points="505.173,258.321 505.173,299.281 246.579,454.383 246.579,413.423 	"/>
	<g>
		<polygon style="fill:#FEDEBB;" points="374.989,201.933 341.197,221.457 341.197,276.275 258.731,323.857 153.054,262.827 
			153.054,182.204 152.576,181.385 142.336,187.187 122.266,151.142 206.711,98.372 289.178,50.79 		"/>
		<polygon style="fill:#FEDEBB;" points="260.301,241.596 258.731,242.483 258.731,323.857 153.054,262.827 153.054,182.204 
			152.576,181.385 206.711,150.665 		"/>
	</g>
	<polygon style="fill:#F58D6D;" points="292.591,249.515 272.521,262.349 260.301,241.596 206.711,150.665 152.576,181.385 
		142.336,187.187 122.266,151.142 206.711,98.372 	"/>
	<polygon style="fill:#D78469;" points="374.989,201.933 341.197,221.457 292.591,249.515 206.711,98.372 289.178,50.79 	"/>
	<polygon style="fill:#D5BFA3;" points="341.197,221.457 341.197,276.275 258.731,323.857 258.731,242.483 260.301,241.596 
		272.521,262.349 292.591,249.515 	"/>
	<polygon style="fill:#928170;" points="219.116,300.988 192.689,285.73 192.689,240.271 219.116,255.522 	"/>
	<polygon style="fill:#F58D6D;" points="292.591,249.515 272.521,262.349 260.301,241.596 206.711,150.665 152.576,181.385 
		142.336,187.187 122.266,151.142 206.711,98.372 	"/>
	<polygon style="fill:#D78469;" points="374.989,201.933 341.197,221.457 292.591,249.515 206.711,98.372 289.178,50.79 	"/>
	<polygon style="fill:#D5BFA3;" points="341.197,221.457 341.197,276.275 258.731,323.857 258.731,242.483 260.301,241.596 
		272.521,262.349 292.591,249.515 	"/>
</g>
<g>
</g>
<g>
</g>
<g>
</g>
<g>
</g>
<g>
</g>
<g>
</g>
<g>
</g>
<g>
</g>
<g>
</g>
<g>
</g>
<g>
</g>
<g>
</g>
<g>
</g>
<g>
</g>
<g>
</g>
</svg>
