<?xml version="1.0" encoding="iso-8859-1"?>
<!-- Generator: Adobe Illustrator 19.0.0, SVG Export Plug-In . SVG Version: 6.00 Build 0)  -->
<svg version="1.1" id="Capa_1" xmlns="http://www.w3.org/2000/svg" xmlns:xlink="http://www.w3.org/1999/xlink" x="0px" y="0px"
	 viewBox="0 0 512.001 512.001" style="enable-background:new 0 0 512.001 512.001;" xml:space="preserve">
<g>
	<path style="fill:#D8625E;" d="M375.253,124.749C339.275,48.364,285.376,0.001,242.272,0.001
		c-7.447-0.039-14.812,1.542-21.586,4.636l-0.416,0.208l-7.542,4.359l-72.164,41.929l-0.138,0.069
		c-1.245,0.761-2.491,1.522-3.667,2.352C96.007,82.128,92.27,169.376,125.482,256.485l43.866,118.383l48.639,137.133l1.384-1.868
		l74.585-42.482h0.069l47.118-65.868l46.979-59.987C419.605,300.835,415.314,209.852,375.253,124.749z"/>
	<path style="fill:#F6DB6D;" d="M217.986,102.47c-48.363-34.387-87.524-6.919-87.524,61.371s39.16,151.524,87.524,185.911
		c48.363,34.318,87.595,6.85,87.595-61.44S266.349,136.788,217.986,102.47z M261.784,280.355l-10.932-23.178v54.037l-65.661-46.633
		v-54.106l-10.932,7.68l-16.467-34.871l60.333-42.136L278.25,268.87L261.784,280.355z"/>
	<polygon style="fill:#00AD97;" points="278.253,268.87 261.786,280.355 250.854,257.177 250.854,311.214 185.193,264.58 
		185.193,210.474 174.261,218.154 157.794,183.283 218.127,141.147 	"/>
	<path style="fill:#944143;" d="M388.123,341.795l-46.979,59.987l-47.118,65.868h-0.069l-74.586,42.482l45.803-64l46.979-59.987
		c31.481-40.96,27.191-132.013-12.87-217.046C263.305,92.714,209.407,44.351,166.371,44.351c-9.051-0.06-17.955,2.28-25.808,6.781
		l72.165-41.929l7.542-4.359l0.416-0.208c6.774-3.093,14.14-4.675,21.586-4.636c43.105,0,97.003,48.363,132.982,124.748
		C415.314,209.852,419.605,300.835,388.123,341.795z"/>
</g>
<g>
</g>
<g>
</g>
<g>
</g>
<g>
</g>
<g>
</g>
<g>
</g>
<g>
</g>
<g>
</g>
<g>
</g>
<g>
</g>
<g>
</g>
<g>
</g>
<g>
</g>
<g>
</g>
<g>
</g>
</svg>
