<?xml version="1.0" encoding="iso-8859-1"?>
<!-- Generator: Adobe Illustrator 19.0.0, SVG Export Plug-In . SVG Version: 6.00 Build 0)  -->
<svg version="1.1" id="Capa_1" xmlns="http://www.w3.org/2000/svg" xmlns:xlink="http://www.w3.org/1999/xlink" x="0px" y="0px"
	 viewBox="0 0 512 512" style="enable-background:new 0 0 512 512;" xml:space="preserve">
<g>
	<path style="fill:#C9CED1;" d="M288.898,99.425V48.917l-32.242-18.612L223.03,49.678V61.44L116.756,0h-0.069L83.13,19.442v209.851
		l139.901,80.813v86.417c0.44,14.326-2.876,28.519-9.617,41.168l-1.176,1.937c-2.975-1.591-5.328,0.277-5.328,4.359v30.72
		L271.463,512l33.626-19.442v-30.72c-0.047-4.143-2.016-8.028-5.328-10.517h-0.069v-0.069L298.585,448
		c-6.115-16.752-9.389-34.407-9.686-52.238V348.16l106.344,61.371l33.626-19.442v-209.92L288.898,99.425z"/>
	<g>
		<polygon style="fill:#A5B4B4;" points="428.87,180.238 428.87,390.089 395.244,409.531 395.244,199.611 		"/>
		<polygon style="fill:#A5B4B4;" points="428.87,180.169 428.87,180.238 395.244,199.611 83.132,19.442 116.689,0 116.758,0 
			223.033,61.44 288.901,99.425 		"/>
	</g>
	<g>
		<path style="fill:#FEDEBB;" d="M271.462,481.28V512l-64.554-37.293v-30.72c0-4.082,2.352-5.95,5.328-4.359l1.315,0.761
			l11.693,6.78l40.614,23.455l0.138,0.069h0.069v0.069C269.41,473.232,271.407,477.124,271.462,481.28z"/>
		<path style="fill:#FEDEBB;" d="M266.066,470.694v0.069l-0.208-0.138l-40.614-23.455l-11.693-6.78l-1.315-0.761l1.176-1.937
			c6.742-12.649,10.057-26.841,9.617-41.168l32.311,18.612c0.266,17.85,3.516,35.53,9.617,52.307L266.066,470.694z"/>
		<polygon style="fill:#FEDEBB;" points="255.344,68.359 255.344,118.867 223.033,100.186 223.033,49.678 		"/>
	</g>
	<polygon style="fill:#D5BFA3;" points="255.344,328.718 255.344,415.135 223.033,396.523 223.033,310.106 	"/>
	<path style="fill:#928170;" d="M299.692,451.252v0.069l-21.31,12.385h-0.069l-12.246,7.057v-0.069l-1.107-3.252
		c-6.101-16.777-9.352-34.457-9.617-52.307l33.557-19.373c0.298,17.831,3.571,35.486,9.686,52.238L299.692,451.252z"/>
	<polygon style="fill:#D5BFA3;" points="288.901,48.917 288.901,48.986 255.344,68.359 223.033,49.678 256.658,30.305 	"/>
	<g>
		<polygon style="fill:#928170;" points="288.901,48.986 288.901,99.425 255.344,118.867 255.344,68.359 		"/>
		<path style="fill:#928170;" d="M305.089,461.838v30.72L271.462,512v-30.72c-0.056-4.156-2.053-8.048-5.397-10.517l12.246-7.057
			h0.069l21.31-12.385h0.069C303.073,453.81,305.042,457.695,305.089,461.838z"/>
		<polygon style="fill:#928170;" points="288.901,348.16 288.901,395.762 255.344,415.135 255.344,328.718 		"/>
		<path style="fill:#928170;" d="M183.526,151.014c-1.835,0.001-3.596-0.728-4.894-2.025s-2.026-3.058-2.025-4.894
			c-0.908-14.018-8.327-26.803-20.047-34.547c-2.691-2.003-6.141-2.686-9.392-1.858c-1.919,1.2-3.174,3.221-3.399,5.473
			c-0.739,3.75-4.378,6.192-8.128,5.453c-3.75-0.739-6.192-4.378-5.453-8.128c0.983-6.674,5.195-12.433,11.257-15.392
			c7.306-2.829,15.534-1.908,22.034,2.466c15.992,10.231,26.04,27.572,26.966,46.534c0.001,1.835-0.728,3.596-2.025,4.894
			S185.361,151.015,183.526,151.014z"/>
	</g>
	<g>
		<path style="fill:#919D9E;" d="M327.884,266.601c-1.212,0.001-2.403-0.318-3.453-0.926l-49.514-28.581
			c-2.143-1.235-3.463-3.52-3.464-5.993s1.319-4.759,3.46-5.995c2.142-1.236,4.781-1.236,6.922,0.002l49.514,28.581
			c2.714,1.566,4.038,4.761,3.225,7.787C333.763,264.503,331.017,266.605,327.884,266.601L327.884,266.601z"/>
		<path style="fill:#919D9E;" d="M289.377,219.135c-1.212,0.001-2.403-0.318-3.453-0.926l-11.007-6.352
			c-2.143-1.235-3.463-3.52-3.464-5.993c-0.001-2.473,1.319-4.759,3.46-5.995c2.142-1.236,4.781-1.236,6.922,0.002l11.007,6.352
			c2.715,1.566,4.038,4.761,3.225,7.787C295.256,217.037,292.511,219.139,289.377,219.135L289.377,219.135z"/>
		<path style="fill:#919D9E;" d="M344.383,250.892c-1.212,0.001-2.403-0.318-3.453-0.926l-33.007-19.054
			c-2.143-1.235-3.463-3.52-3.464-5.993c-0.001-2.473,1.319-4.759,3.46-5.995c2.142-1.236,4.781-1.236,6.922,0.002l33.007,19.054
			c2.714,1.566,4.038,4.761,3.225,7.787C350.262,248.793,347.517,250.896,344.383,250.892z"/>
		<path style="fill:#919D9E;" d="M344.383,301.372c-1.212,0.001-2.403-0.318-3.453-0.926l-33.007-19.054
			c-2.143-1.235-3.463-3.52-3.464-5.993c-0.001-2.473,1.319-4.759,3.46-5.995c2.142-1.236,4.781-1.236,6.922,0.002l33.007,19.054
			c2.714,1.566,4.038,4.761,3.225,7.787C350.262,299.273,347.517,301.376,344.383,301.372z"/>
		<path style="fill:#919D9E;" d="M289.377,269.608c-1.212,0.001-2.403-0.318-3.453-0.926l-11.007-6.352
			c-2.143-1.235-3.463-3.52-3.464-5.993c-0.001-2.473,1.319-4.759,3.46-5.995c2.142-1.236,4.781-1.236,6.922,0.002l11.007,6.352
			c2.714,1.566,4.038,4.761,3.225,7.787S292.511,269.612,289.377,269.608L289.377,269.608z"/>
		<path style="fill:#919D9E;" d="M344.383,326.608c-1.212,0.001-2.403-0.318-3.453-0.926l-5.5-3.176
			c-3.308-1.912-4.441-6.142-2.531-9.451c1.91-3.309,6.14-4.444,9.45-2.536l5.5,3.176c2.714,1.566,4.038,4.761,3.225,7.787
			C350.262,324.51,347.517,326.612,344.383,326.608z"/>
		<path style="fill:#919D9E;" d="M316.877,310.73c-1.212,0.001-2.403-0.318-3.453-0.926l-38.507-22.23
			c-3.31-1.911-4.444-6.143-2.534-9.453c1.911-3.31,6.143-4.444,9.453-2.534l38.507,22.23c2.714,1.566,4.038,4.761,3.225,7.787
			S320.011,310.734,316.877,310.73L316.877,310.73z"/>
	</g>
	
		<ellipse transform="matrix(-0.505 -0.8631 0.8631 -0.505 85.9113 326.3038)" style="fill:#EACA6F;" cx="136.524" cy="138.517" rx="33.135" ry="19.131"/>
	<path style="fill:#BFA057;" d="M150.614,168.111c-4.863,1.094-9.962,0.144-14.105-2.629c-5.635-3.478-10.447-8.138-14.105-13.659
		v56.273l14.105,22.276l14.105-5.988l-9.404-12.869l9.404-5.357l-9.404-16.215l9.404-5.357L150.614,168.111z"/>
	<path style="fill:#DC6C33;" d="M246.762,225.835l-33.246,18.939l-34.373-59.271c-1.761-2.945-2.851-6.243-3.191-9.658
		l-1.829-24.128c-0.59-7.785,4.847-10.883,11.338-6.459l20.115,13.711c2.799,2.003,5.124,4.595,6.813,7.594L246.762,225.835z"/>
</g>
<g>
</g>
<g>
</g>
<g>
</g>
<g>
</g>
<g>
</g>
<g>
</g>
<g>
</g>
<g>
</g>
<g>
</g>
<g>
</g>
<g>
</g>
<g>
</g>
<g>
</g>
<g>
</g>
<g>
</g>
</svg>
